# xmcd
#
# Track frame offsets: 
#        150
#        6966
#        15405
#        29042
#        45160
#        54671
#        65652
#        78184
#        83269
#        90684
#        103377
#        111959
#        123880
#        134118
#        145396
#        151232
#        157702
#        162924
#        173768
#        182964
#        192876
#        197319
#        206216
#        211888
#        217841
#        221561
#        233179
#        242043
#        252614
#        263265
#        271163
#        279546
#        287179
#        296168
#        305615
#        314947
#        323574
#
# Disc length: 4438 seconds
#
# Revision: 0
# Processed by: cddbd v1.5.1PL0 Copyright (c) Steve Scherf et al.
# Submitted via: ExactAudioCopy v0.95a5
#
DISCID=1e115425
DTITLE=Wonder Workshop - Smoky Mountain 101 Hymns Of Faith [CD3]
DYEAR=2003
DGENRE=Gospel
TTITLE0=At The Cross
TTITLE1=All Hail The Power
TTITLE2=Softly and Tenderly
TTITLE3=Jerusalem's Ridge
TTITLE4=Rock of Ages
TTITLE5=Wonderful Peace
TTITLE6=In The Garden
TTITLE7=Church in the Wildwood
TTITLE8=My Savior's Love
TTITLE9=He Hideth My Soul
TTITLE10=Climb Up Sunshine Mountain
TTITLE11=Lord, I Want To Be A Christian
TTITLE12=Near to the Heart of God
TTITLE13=Onward Christian Soldiers
TTITLE14=O For A thousand Tongues To Sing
TTITLE15=There Is Power In The Blood
TTITLE16=I Need Thee Every Hour
TTITLE17=Sweet Hour of Praise
TTITLE18=When We All Get to Heaven
TTITLE19=Tust and Obey
TTITLE20=Go Tell It on the Mountain
TTITLE21=Angels We Have Heard On High
TTITLE22=While Shepherds Watched Their Flocks
TTITLE23=Hark, the Heard Angels Sing
TTITLE24=Cradle Hymn
TTITLE25=O Come All Ye Faithful
TTITLE26=What Child Is This
TTITLE27=A Smoky Mountain Christmas
TTITLE28=It Came Upon a Midnight Clear
TTITLE29=The First Noel
TTITLE30=Joy To The World
TTITLE31=Away In A Manger
TTITLE32=Silent Night
TTITLE33=God Rest Ye Merry GEntlemen
TTITLE34=Evergreen Morning
TTITLE35=Christmas In Bethlehem
TTITLE36=We Wish You A Merry Christmas
EXTD=
EXTT0=
EXTT1=
EXTT2=
EXTT3=
EXTT4=
EXTT5=
EXTT6=
EXTT7=
EXTT8=
EXTT9=
EXTT10=
EXTT11=
EXTT12=
EXTT13=
EXTT14=
EXTT15=
EXTT16=
EXTT17=
EXTT18=
EXTT19=
EXTT20=
EXTT21=
EXTT22=
EXTT23=
EXTT24=
EXTT25=
EXTT26=
EXTT27=
EXTT28=
EXTT29=
EXTT30=
EXTT31=
EXTT32=
EXTT33=
EXTT34=
EXTT35=
EXTT36=
PLAYORDER=
